<svg width="32" height="32" viewBox="0 0 32 32" fill="none" xmlns="http://www.w3.org/2000/svg">
  <path d="M8 6C8 4.89543 8.89543 4 10 4C11.1046 4 12 4.89543 12 6L12 10C12 11.1046 11.1046 12 10 12C8.89543 12 8 11.1046 8 10L8 6Z" fill="currentColor"/>
  <path d="M8.58579 13.4142C7.80474 12.6332 7.80474 11.3668 8.58579 10.5858C9.36684 9.80474 10.6332 9.80474 11.4142 10.5858L14.8284 14C15.6095 14.7811 15.6095 16.0474 14.8284 16.8284C14.0474 17.6095 12.7811 17.6095 12 16.8284L8.58579 13.4142Z" fill="currentColor"/>
  <path d="M11.4142 15.1716C10.6332 14.3905 10.6332 13.1242 11.4142 12.3431C12.1953 11.5621 13.4616 11.5621 14.2426 12.3431L20.2426 18.3431C21.0237 19.1242 21.0237 20.3905 20.2426 21.1716L18.8284 22.5858C18.0474 23.3668 16.7811 23.3668 16 22.5858L11.4142 18C10.6332 17.2189 10.6332 15.9526 11.4142 15.1716Z" fill="currentColor"/>
  <path d="M20 6C20 4.89543 20.8954 4 22 4C23.1046 4 24 4.89543 24 6L24 10C24 11.1046 23.1046 12 22 12C20.8954 12 20 11.1046 20 10L20 6Z" fill="currentColor"/>
  <path d="M23.4142 13.4142C24.1953 12.6332 24.1953 11.3668 23.4142 10.5858C22.6332 9.80474 21.3668 9.80474 20.5858 10.5858L17.1716 14C16.3905 14.7811 16.3905 16.0474 17.1716 16.8284C17.9526 17.6095 19.2189 17.6095 20 16.8284L23.4142 13.4142Z" fill="currentColor"/>
</svg>
